<!DOCTYPE svg PUBLIC "-//W3C//DTD SVG 1.1//EN" "http://www.w3.org/Graphics/SVG/1.1/DTD/svg11.dtd">
<!-- Uploaded to: SVG Repo, www.svgrepo.com, Transformed by: SVG Repo Mixer Tools -->
<svg fill="#000000" version="1.1" id="Capa_1" xmlns="http://www.w3.org/2000/svg" xmlns:xlink="http://www.w3.org/1999/xlink" viewBox="0 0 490 490" xml:space="preserve" width="800px" height="800px">
<g id="SVGRepo_bgCarrier" stroke-width="0"/>
<g id="SVGRepo_tracerCarrier" stroke-linecap="round" stroke-linejoin="round"/>
<g id="SVGRepo_iconCarrier"> <g> <path d="M485.825,177.806L251.252,2.084c-3.706-2.779-8.797-2.779-12.503,0L4.181,177.801c-2.626,1.97-4.174,5.061-4.174,8.344 c0,0.002,0,0.003,0,0.005H0.001v293.425C0.001,485.333,4.67,490,10.427,490h469.146c5.758,0,10.425-4.667,10.425-10.426V186.149 C489.999,182.866,488.452,179.776,485.825,177.806z M245,23.455l217.185,162.695l-72.245,54.118v-99.205H100.067v99.203 l-72.245-54.121L245,23.455z M369.088,255.886L245,348.839l-124.082-92.954v-93.972h248.17V255.886z M20.852,469.149V206.977 l217.897,163.232c5.38,3.763,10.65,1.39,12.503,0l217.896-163.223v262.163H20.852z"/> <rect x="185.369" y="198.464" width="121.212" height="20.851"/> <rect x="185.369" y="245.312" width="121.212" height="20.851"/> </g> </g>
</svg>