<?xml version="1.0" encoding="utf-8"?>

<!DOCTYPE svg PUBLIC "-//W3C//DTD SVG 1.1//EN" "http://www.w3.org/Graphics/SVG/1.1/DTD/svg11.dtd">
<!-- Uploaded to: SVG Repo, www.svgrepo.com, Generator: SVG Repo Mixer Tools -->
<svg height="800px" width="800px" version="1.1" id="_x32_" xmlns="http://www.w3.org/2000/svg" xmlns:xlink="http://www.w3.org/1999/xlink" 
	 viewBox="0 0 512 512"  xml:space="preserve">
<style type="text/css">
	.st0{fill:#000000;}
</style>
<g>
	<polygon class="st0" points="90.256,330.703 125.516,330.703 123.652,302.733 87.692,302.733 	"/>
	<polygon class="st0" points="210.339,380.83 244.085,380.83 244.085,352.868 209.389,352.868 	"/>
	<polygon class="st0" points="208.635,330.703 244.085,330.703 244.085,302.733 207.684,302.733 	"/>
	<polygon class="st0" points="302.46,352.868 267.916,352.868 267.916,380.83 300.969,380.83 	"/>
	<polygon class="st0" points="305.123,302.733 267.916,302.733 267.916,330.703 303.639,330.703 	"/>
	<polygon class="st0" points="307.862,251.404 267.916,251.404 267.916,280.561 306.302,280.561 	"/>
	<polygon class="st0" points="244.085,280.561 244.085,251.404 205.934,251.404 206.93,280.561 	"/>
	<polygon class="st0" points="183.085,280.561 182.095,251.404 144.105,251.404 146.045,280.561 	"/>
	<polygon class="st0" points="149.385,330.703 184.789,330.703 183.838,302.733 147.52,302.733 	"/>
	<polygon class="st0" points="94.845,380.83 128.856,380.83 126.992,352.868 92.288,352.868 	"/>
	<polygon class="st0" points="152.733,380.83 186.501,380.83 185.55,352.868 150.862,352.868 	"/>
	<polygon class="st0" points="155.982,429.603 188.16,429.603 187.254,403.003 154.209,403.003 	"/>
	<polygon class="st0" points="211.998,429.603 244.085,429.603 244.085,403.003 211.1,403.003 	"/>
	<polygon class="st0" points="299.782,403.003 267.916,403.003 267.916,429.603 298.366,429.603 	"/>
	<polygon class="st0" points="357.791,403.003 323.643,403.003 322.228,429.603 356.019,429.603 	"/>
	<polygon class="st0" points="361.139,352.868 326.314,352.868 324.822,380.83 359.268,380.83 	"/>
	<polygon class="st0" points="419.712,352.868 385.008,352.868 383.145,380.83 417.156,380.83 	"/>
	<polygon class="st0" points="424.309,302.733 388.349,302.733 386.485,330.703 421.744,330.703 	"/>
	<polygon class="st0" points="364.48,302.733 328.985,302.733 327.493,330.703 362.616,330.703 	"/>
	<polygon class="st0" points="367.896,251.404 331.716,251.404 330.164,280.561 365.956,280.561 	"/>
	<polygon class="st0" points="122.176,280.561 120.228,251.404 82.99,251.404 85.661,280.561 	"/>
	<polygon class="st0" points="99.319,429.603 132.113,429.603 130.34,403.003 96.876,403.003 	"/>
	<polygon class="st0" points="415.124,403.003 381.66,403.003 379.888,429.603 412.682,429.603 	"/>
	<polygon class="st0" points="429.011,251.404 391.773,251.404 389.825,280.561 426.34,280.561 	"/>
	<path class="st0" d="M338.625,130.689l73.326-60.748c8.963-7.434,10.211-20.719,2.784-29.682
		c-7.434-8.963-20.718-10.211-29.682-2.785l-112.497,93.216H0v96.032h33l23.55,252.652h398.902l23.55-252.652H512v-10.995v-85.037
		H338.625z M435.41,457.376H76.591L53.795,212.873h404.41L435.41,457.376z M490.003,201.87H21.998v-49.184H246.01l-2.093,1.734
		c-8.963,7.427-10.21,20.719-2.784,29.675c7.434,8.963,20.719,10.211,29.682,2.785l41.27-34.194h177.918V201.87z"/>
</g>
</svg>